<svg width="24" height="24" viewBox="0 0 24 24" fill="none" xmlns="http://www.w3.org/2000/svg">
<path d="M19 6V11H5V6C5 5.46957 5.21071 4.96086 5.58579 4.58579C5.96086 4.21071 6.46957 4 7 4H17C17.5304 4 18.0391 4.21071 18.4142 4.58579C18.7893 4.96086 19 5.46957 19 6Z" fill="#111C4E"/>
<path d="M19 11H5M3 11H5H3ZM21.5 11H19H21.5ZM19 11V6C19 5.46957 18.7893 4.96086 18.4142 4.58579C18.0391 4.21071 17.5304 4 17 4H7C6.46957 4 5.96086 4.21071 5.58579 4.58579C5.21071 4.96086 5 5.46957 5 6V11H19Z" stroke="#111C4E" stroke-width="2" stroke-linecap="round" stroke-linejoin="round"/>
<path d="M7 20C8.65685 20 10 18.6569 10 17C10 15.3431 8.65685 14 7 14C5.34315 14 4 15.3431 4 17C4 18.6569 5.34315 20 7 20Z" fill="#111C4E" stroke="#111C4E" stroke-width="2" stroke-linecap="round" stroke-linejoin="round"/>
<path d="M17 20C18.6569 20 20 18.6569 20 17C20 15.3431 18.6569 14 17 14C15.3431 14 14 15.3431 14 17C14 18.6569 15.3431 20 17 20Z" fill="#111C4E" stroke="#111C4E" stroke-width="2" stroke-linecap="round" stroke-linejoin="round"/>
<path d="M10 16H14" stroke="#111C4E" stroke-width="2" stroke-linecap="round" stroke-linejoin="round"/>
</svg>
