
<svg xmlns="http://www.w3.org/2000/svg" version="1.1" xmlns:xlink="http://www.w3.org/1999/xlink" preserveAspectRatio="none" x="0px" y="0px" width="1000px" height="1000px" viewBox="0 0 1000 1000">
<defs>
<g id="ELEMENTS_Backpack_0_Layer1_0_MEMBER_0_FILL">
<path fill="#111C4E" stroke="none" d="
M 531.35 115.3
Q 510.1 113.35 488.9 113.35 457.55 113.35 429.85 118.85 413.8 122.05 408.7 122.8 396.1 124.7 381.95 124.95 364.65 125.25 348.55 123.1 341.4 122.1 321.35 118.25 304.25 114.95 291.35 113.75 272.35 111.95 249.65 112.85 233.4 113.45 217.95 115.3 183.15 123.45 159.8 145.9 142.5 162.5 132.7 186.05 123.55 208.05 121.85 233.85 120.25 258.6 125.7 283.35 131.15 308 142.7 328.65 160.9 361.2 194 382.95 179.1 421.85 171.15 461.8 161.8 509.15 162.55 556.6 163.25 600.5 168.05 624.8 175.8 664.35 197.85 694.4 210.55 711.7 227.05 725.3 245.05 732.05 262.9 736.3 310.05 747.6 360.1 743.4 397.55 740.25 435.45 728.45 475.7 714.25 504.5 685.45 528.35 661.6 541.9 629.15 550.1 609.55 557.4 576.7 569.4 523.1 562.05 466.4 556.95 427.1 542.95 388.6 574.45 381.4 597.1 362.1 617.05 345.15 630 319.15 642.55 293.8 645.95 265.05 649.45 235.65 642.6 208.75 635.25 180.1 617.35 159.1 599.25 137.85 571.4 126.1 552.7 118.25 531.35 115.3 Z"/>
</g>

<g id="ELEMENTS_Backpack_0_Layer1_0_MEMBER_1_FILL">
<path fill="#C47B4C" stroke="none" d="
M 611.85 175.1
Q 596.85 153.1 572.65 140.2 548.1 127.1 520.9 127.15 498.55 127.2 477.5 136.45 465.55 141.7 454.75 149.75 409.45 183.1 404 253.4 402.75 269.35 403.85 281.2 405.7 301.45 413.95 319.55 420.95 334.95 429.1 345.55 444.15 365.2 465.2 374.1 481.25 380.9 499.85 380.6 510.85 380.45 530.25 376.85 548.4 373.5 559.1 369.75 577.95 363.1 592 350.95 615.75 330.45 624.75 296.05 629.65 277.25 630.05 251.15 630.45 229.4 628.25 216.3 624.35 193.45 611.85 175.1 Z"/>
</g>

<g id="ELEMENTS_Backpack_0_Layer1_0_MEMBER_2_FILL">
<path fill="#C47B4C" stroke="none" d="
M 388.1 138.5
Q 366.1 139.8 347.8 139.25 325.65 138.6 295.7 133.25 269.75 128.6 245.8 129.35 228.45 129.85 209.95 132.65 184.4 145.25 168.05 166.25 142.25 199.55 142.85 246.65 143.1 268.2 149.2 289.1 155.3 309.9 166.4 327.25 183 353.1 209.95 370.25 223.3 372.25 236.7 373 257.45 374.15 279.05 371.35 304.2 368.1 317.75 368.05 332.15 368 348 370.8 366.45 374.05 386.4 374.95 413.4 376.1 439.3 374.1 425.85 362.45 415.45 348.75 401.75 330.7 394.1 310.15 388.2 294.25 386.4 279.3 384.05 260.45 387.4 241.15 389.35 229.65 394.65 213.15 398.25 202.05 401.6 194.3 407.4 181 415.6 169.05 430.05 147.9 450.35 132.65 433.8 134.75 420.55 135.95 400.45 137.8 388.1 138.5 Z"/>
</g>

<g id="ELEMENTS_Backpack_0_Layer1_0_MEMBER_3_FILL">
<path fill="#C47B4C" stroke="none" d="
M 349.7 387.1
Q 340.5 384.9 335.5 384.25 326.65 383.1 314.7 383.6 304.65 384.05 293.85 385.6 282.15 387.55 276.55 388.4 256.4 391.5 237 389.4 222.95 387.9 209.4 384.3 190.8 440.75 182.8 498.15 174.6 557.35 180.35 594.9 183.4 614.7 189.2 633.15 192.6 643.95 196.5 652.85 209.85 683.7 232 709.45 262.35 720.6 293.6 725.15 338.85 731.8 382.95 724.3 418.35 718.35 452 703.25 474.05 693.2 491.25 677.6 535 638 546 564.3 551.95 524.65 547.5 470.05 544.3 430.65 532.6 392.3 513.65 395.95 494.55 395.6 483.35 395.45 470.9 393.5 453 390.7 448.3 390.2 434.7 388.8 421.55 389.85 401.75 391.45 392.05 391.5 368.65 391.65 349.7 387.1 Z"/>
</g>

<g id="ELEMENTS_Backpack_0_Layer1_0_MEMBER_4_FILL">
<path fill="#111C4E" stroke="none" d="
M 502.85 188.6
Q 500.2 189.8 496.35 192.25 488.65 197.2 482.85 203.5 454.05 234.9 453.85 268.5 453.8 279 456.6 288.5 458.05 293.2 459.45 295.85 469.25 314.05 489.75 323.6 509.4 332.75 528.6 329.45 535 328.35 539.5 326.6 547.25 323.55 552.45 317.9 564.1 305.15 562.05 284.4 559.95 263.8 546.25 252.25 540.4 247.45 534.2 244.8 522.7 240 514.3 244.85 507.4 248.8 504.5 257.5 501.55 266.35 504.1 276.25 504.55 278.5 506.3 279.7 508.2 281.05 510.9 280.65 513.5 280.25 514.15 278.6 514.6 277.25 513.45 275.45 512.5 273.2 512.25 270.5 511.8 265.5 514.15 261.65 516.55 257.75 521.3 256 525.4 254.5 529.45 255.15 536.9 256.35 542.25 265.8 545.15 271.05 547.9 280.3 550.4 288.7 550.8 293.85 551.45 303.05 546.95 308.35 544.85 310.85 541.5 312.3 539.3 313.25 533.6 314.7 522.65 317.55 514.9 317.7 500.95 318.05 489.6 311.55 480.35 306.15 474.4 297.7 468.8 289.85 466.65 280 465.5 274.45 465.35 266.75 465.2 253.3 470.75 240.4 473.95 233 479.55 225.1 486.4 215.35 492.55 209.75 503.6 199.7 517.2 196.6 524.95 194.85 532.25 194.95 546.3 195.15 554.95 202.25 559.65 206.05 564 211.45 570.55 219.5 571.05 225.55 571.25 226.95 571.35 227.35 571.75 228.65 572.6 229.1 574.3 230.05 577.15 228.1 580.1 226.15 581.25 223.05 582.2 220.7 581.55 217 580.9 213.15 579.35 209.3 577.95 205.9 576.15 203.35 570.4 195.15 556.8 189.4 541.6 182.9 525.15 183.65 513.05 184.2 502.85 188.6 Z"/>
</g>

<g id="FACES_RightHand_0_Layer1_0_MEMBER_0_FILL">
<path fill="#1D1D4C" stroke="none" d="
M 70.8 499
Q 57.45 498.4 44.35 505.75 37.05 509.85 27.35 518.4 19 525.85 13.05 534.7 2.2 550.85 0.5 569.3 -0.3 578.15 0.35 584.75 1.5 596.9 7.1 606.9 17.55 625.6 41.5 634 54.2 638.45 70.8 639.65 86.4 640.8 95.65 639.45 111.95 637.05 123.3 627.15 138.25 614.05 141.3 591.5 142.95 579.6 141.15 569.3 139 556.9 131.75 545.85 127.45 539.25 117.5 528.35 105 514.6 97.35 509 84.6 499.65 70.8 499 Z"/>
</g>

<g id="FACES_RightHand_0_Layer1_0_MEMBER_1_FILL">
<path fill="#CABC9D" stroke="none" d="
M 70.85 509.8
Q 59.55 509.3 48.45 515.5 42.25 519 34.05 526.25 27 532.5 21.9 540.05 12.75 553.7 11.3 569.35 10.65 576.8 11.2 582.4 12.2 592.7 16.9 601.15 25.75 617 46 624.1 56.75 627.85 70.85 628.9 84.05 629.9 91.9 628.7 105.7 626.7 115.25 618.3 127.95 607.2 130.55 588.15 131.85 578.3 130.4 569.35 128.55 558.85 122.45 549.45 118.8 543.85 110.35 534.65 99.65 523 93.3 518.3 82.5 510.35 70.85 509.8 Z"/>
</g>

<g id="Torso_0_Layer2_0_MEMBER_0_FILL">
<path fill="#1D1D4C" stroke="none" d="
M 218.5 353.45
L 164.55 390.35
Q 157.2 441.8 154.05 493.95 150.65 550.4 152.25 606.9
L 159.25 647.8
Q 162.2 666.4 170.85 682.55 180.7 701.1 196.9 714.8 215.8 729.9 239.35 734.75 256.2 738.2 273.45 735.75 284.5 734.2 294.8 730.35 314.2 726.75 328.45 713.75 341.3 702.15 346.95 685.85
L 364.6 606.9
Q 364.7 550.8 362.25 496.1 359.95 442.7 355.25 389
L 317.45 365.45 284.1 353.45 218.5 353.45 Z"/>
</g>

<g id="Torso_0_Layer2_0_MEMBER_1_FILL">
<path fill="#ABCDE4" stroke="none" d="
M 222.1 364.2
L 177.7 392.3
Q 169.65 441.9 166.7 490.7 163.1 549.5 166.6 608.55 167.05 622.05 169.6 635.4 174.2 659.3 185.85 681.75
L 231.6 721.4 294.85 717.3 332.5 687.95
Q 341.95 662.8 347.4 636.25 350.35 621.6 351.95 607.7 355.65 545.75 351.1 484.1 347.8 439.7 340.35 396
L 280.4 364.2 222.1 364.2 Z"/>
</g>

<g id="ELEMENTS_Bottom_0_Layer2_0_MEMBER_0_MEMBER_0_FILL">
<path fill="#111C4E" stroke="none" d="
M 153.15 653.4
Q 152.9 668 154.7 682.35 156.75 699 161.55 714.8 167.4 731.5 178.45 744.4 201.25 771.1 241.8 777.3 263.3 780.6 283.85 777.75 304.15 774.85 319.3 768.7 347.8 757.05 358.3 734.95 362.7 725.8 363.75 714.8
L 364.6 653.4 351.65 616.6 161.3 618.9
Q 155.35 635.45 153.15 653.4 Z"/>
</g>

<g id="ELEMENTS_Bottom_0_Layer2_0_MEMBER_0_MEMBER_1_FILL">
<path fill="#8484BF" stroke="none" d="
M 166.6 656.35
Q 166.95 672.2 169.75 687.8 172.4 703.1 177.7 718.75 187.75 737 203.65 748.7 219.9 760.75 241 764.65 252.9 766.85 272.25 766.65 286.4 766.5 296.2 764.7 313.1 761.65 326.55 753.4 335.85 747.7 342.3 740.4 345.95 736.3 348.05 732.45 353.15 723.35 354.4 712.6 354.85 706.85 354.95 701.6 355.15 693.9 354.35 676.5
L 353.3 655.25
Q 352.7 643.35 350.55 631.85 349.75 627.6 349.75 623.35 349.75 620.4 348.45 616.6
L 170.3 626.6
Q 166 641.2 166.6 656.35 Z"/>
</g>

<g id="ELEMENTS_Bottom_0_Layer2_0_MEMBER_1_MEMBER_0_FILL">
<path fill="#111C4E" stroke="none" d="
M 152.25 606.9
Q 147.25 619.55 148.1 632.8 148.75 643.5 153.15 653.4 203.8 668.25 256.85 668.55 311.7 668.85 364.6 653.4 368.35 641.95 368.35 630.05 368.3 618.05 364.6 606.9 312.45 616.05 259.7 616.2 205.95 616.35 152.25 606.9 Z"/>
</g>

<g id="ELEMENTS_Bottom_0_Layer2_0_MEMBER_1_MEMBER_1_FILL">
<path fill="#C47B4C" stroke="none" d="
M 158.4 630.85
Q 158.4 635.45 159.35 641.05 160.15 646.15 161.15 648.65 179.6 654.65 202.7 658.1 229.15 662.1 258.15 662.2 287.25 662.25 314.85 657.8 337.5 654.15 357.1 647.85 358 646.7 358.75 641.7 359.55 636.55 359.6 630.85 359.65 625.35 358.9 621.3 358.25 617.8 357.3 616.6 308.8 624.05 259.5 624.05 209.9 624.05 161.15 616.6 158.45 623.6 158.4 630.85 Z"/>
</g>

<g id="ELEMENTS_BeltBuckle_0_Layer0_0_MEMBER_0_FILL">
<path fill="#111C4E" stroke="none" d="
M 213.85 579.9
Q 210.55 575.8 205.95 575.8 201.3 575.8 198.05 579.9
L 156.65 631.9
Q 153.4 636.05 153.4 641.85 153.4 647.65 156.65 651.75
L 198.05 703.75
Q 201.3 707.9 205.95 707.9 210.55 707.9 213.85 703.75
L 255.2 651.75
Q 258.45 647.65 258.45 641.85 258.45 636.05 255.2 631.9
L 213.85 579.9
M 220.9 638.1
Q 222.15 639.65 222.15 641.85 222.15 644.05 220.9 645.6
L 208.95 660.6
Q 207.7 662.2 205.95 662.2 204.2 662.2 202.95 660.6
L 191 645.6
Q 189.75 644.05 189.75 641.85 189.75 639.65 191 638.1
L 202.95 623.05
Q 204.2 621.5 205.95 621.5 207.7 621.5 208.95 623.05
L 220.9 638.1 Z"/>
</g>

<g id="ELEMENTS_BeltBuckle_0_Layer0_0_MEMBER_1_FILL">
<path fill="#ACCEE6" stroke="none" d="
M 212.65 589.05
Q 209.85 585.55 205.95 585.55 209.7 593.05 209.3 601.25 209 607.4 206.35 612.8 204.85 615.85 202.9 618.15
L 224.7 645.6
Q 227.25 642.55 228.75 640.35 231.45 636.4 232.85 632 234.3 627.4 234.1 622.3 233.95 619.15 233 614.6
L 212.65 589.05 Z"/>
</g>

<g id="ELEMENTS_BeltBuckle_0_Layer0_0_MEMBER_2_FILL">
<path fill="#8686C4" stroke="none" d="
M 187.1 638.05
Q 186.1 639.5 183.1 643.3 180.35 647.25 178.95 651.65 177.5 656.25 177.75 661.35 177.9 664.45 178.85 669
L 199.2 694.6
Q 202 698.1 205.9 698.1 202.15 690.95 202.55 682.4 202.85 676.25 205.5 670.85 206.95 667.75 208.9 665.5
L 187.1 638.05 Z"/>
</g>

<g id="ELEMENTS_BeltBuckle_0_Layer0_0_MEMBER_3_FILL">
<path fill="#5A5AA5" stroke="none" d="
M 205.95 585.55
Q 202 585.55 199.2 589.05
L 163.95 633.4
Q 161.2 636.9 161.2 641.85 161.2 646.8 163.95 650.3
L 178.85 669
Q 177.9 664.45 177.75 661.35 177.5 656.25 178.95 651.65 180.35 647.25 183.1 643.3 186.1 639.5 187.1 638.05
L 202.9 618.15
Q 204.85 615.85 206.35 612.8 209 607.4 209.3 601.25 209.7 593.05 205.95 585.55 Z"/>
</g>

<g id="ELEMENTS_BeltBuckle_0_Layer0_0_MEMBER_15_FILL">
<path fill="#65B2E8" stroke="none" d="
M 250.7 641.85
Q 250.7 636.9 247.9 633.4
L 233 614.6
Q 233.95 619.15 234.1 622.3 234.3 627.4 232.85 632 231.45 636.4 228.75 640.35 227.25 642.55 224.7 645.6
L 208.9 665.5
Q 206.95 667.75 205.5 670.85 202.85 676.25 202.55 682.4 202.15 690.95 205.9 698.1 207.65 698.1 209.45 697.25
L 209.5 697.25 210.25 696.8 210.35 696.75 211.75 695.6 211.95 695.4 247.9 650.3
Q 250.7 646.8 250.7 641.85 Z"/>
</g>

<g id="ELEMENTS_BeltBuckle_0_Layer0_0_MEMBER_16_FILL">
<path fill="#111C4E" stroke="none" d="
M 224.75 638.05
L 208.95 618.15
Q 207.7 616.6 205.95 616.6 204.2 616.6 202.9 618.15
L 187.1 638.05
Q 185.85 639.65 185.85 641.85 185.85 644.05 187.1 645.6
L 202.9 665.5
Q 204.2 667.1 205.95 667.1 207.7 667.1 208.95 665.5
L 224.75 645.6
Q 226.05 644.05 226.05 641.85 226.05 639.65 224.75 638.05
M 218.65 638.65
Q 219.75 639.95 219.75 641.85 219.75 643.7 218.65 645.05
L 208.5 657.85
Q 207.45 659.15 205.95 659.15 204.45 659.15 203.4 657.85
L 193.2 645.05
Q 192.15 643.7 192.15 641.85 192.15 639.95 193.2 638.65
L 203.4 625.85
Q 204.45 624.5 205.95 624.5 207.45 624.5 208.5 625.85
L 218.65 638.65 Z"/>
</g>

<g id="ELEMENTS_BackFlap_0_Layer1_0_MEMBER_0_FILL">
<path fill="#1D1D4C" stroke="none" d="
M 77.35 179.75
L 52.65 184.25 38 198.4
Q 36.5 210.4 35.75 218.1 34.8 228.45 34.95 242 35.1 251.85 35.95 268.1 37.3 293.1 41.25 318.75 42.8 331.5 45.75 344 50.1 362.6 58.3 381.7 69 406.5 70.55 411.1 80.7 441.35 77.05 477.25 76.5 480 77 482.3 77.55 484.7 79.05 485.75 81.4 487.4 85.15 485.85 89.3 484.15 91.8 479.65 104.8 460.8 112.3 438.6 119.7 416.85 121 393.75 122.55 376.5 122.85 358.4 123.1 344 122.55 330.85 119.9 320.55 119.6 310.1 119.1 293.85 124.1 278.8 129.25 263.45 139.4 250.9 144.9 244.1 145.2 235.4 145.5 225.85 139.4 218.1
L 135.55 207.05 121.3 191.35 105.5 182.6 77.35 179.75 Z"/>
</g>

<g id="ELEMENTS_BackFlap_0_Layer1_0_MEMBER_1_FILL">
<path fill="#ABCDE4" stroke="none" d="
M 102.4 188.9
L 77.6 183.7 58.55 198.6 48.15 217.6
Q 45.4 250.45 48.25 283.15 51.4 319.6 61.25 354.45 62.55 359.7 64.55 365.85 68.35 377.45 73.5 388.45 75.4 392.5 79.25 399.75 90.65 421.15 87.3 467 96.65 450.65 102.85 432.8 111.65 407.7 113.75 381.35 116.45 347.95 108.2 314.8 106.6 305.55 107.2 296.3 108.15 281.3 114.8 268.45 120.75 257.05 130.3 248.4 132.25 246.5 133.75 244 136.3 239.75 136.7 235 137.25 228.8 134.2 223 132.5 219.8 130.3 217.6
L 117.1 205.2 102.4 188.9 Z"/>
</g>

<g id="FACES_Head_14_Layer5_0_MEMBER_0_FILL">
<path fill="#1D1D4C" stroke="none" d="
M 380.65 134.95
Q 356.05 110.7 324.15 97.4 291.15 83.6 255 83.6 218.85 83.6 185.85 97.4 154 110.7 129.4 134.95 104.8 159.25 91.3 190.7 77.35 223.25 77.35 258.95 77.35 296.85 93 331.05 108.15 364.15 135.5 388.7 128 396.85 122.45 409.45 112.1 432.75 117.65 456 122.1 474.7 135.9 489.15 143.4 497.05 152.25 502.3 203.25 522.05 258.2 522.15 288.85 522.2 319.4 514 334.65 509.9 362.15 499.25 369.7 492 376.5 480.2 388.15 459.95 388.05 439.15 387.95 420.65 381.4 406.05 377.5 397.45 371.8 391.1 401.25 366.8 416.85 333.25 432.7 299.2 432.7 258.95 432.7 223.25 418.75 190.7 405.25 159.2 380.65 134.95 Z"/>
</g>

<g id="FACES_Head_14_Layer5_0_MEMBER_1_FILL">
<path fill="#8484BF" stroke="none" d="
M 188.2 419.85
Q 176.55 415.6 165.3 409.95 153.55 403.95 143.55 397.25 138.05 404 134.35 412.15 127.55 427.2 128.65 443.3 129.8 460.05 139.25 474.4 144.45 482.3 151 487.95 158.7 492.1 166.7 495.4 177.8 499.9 188.2 502.55 184 494.85 181.45 486.3 177.5 473.3 177.7 459.85 178.05 438.8 188.2 419.85 Z"/>
</g>

<g id="FACES_Head_14_Layer5_0_MEMBER_2_FILL">
<path fill="#8484BF" stroke="none" d="
M 378.1 443.3
Q 379.2 427.2 372.45 412.15 368.75 403.95 363.25 397.25 353.1 404.05 341.45 409.95 330.1 415.65 318.6 419.85 328.7 438.7 329.05 459.85 329.3 473.3 325.35 486.3 322.8 494.85 318.6 502.55 329 499.9 340.1 495.4 348.1 492.1 355.8 487.95 362.35 482.3 367.5 474.4 376.95 460.05 378.1 443.3 Z"/>
</g>

<g id="FACES_Head_14_Layer5_0_MEMBER_3_FILL">
<path fill="#8484BF" stroke="none" d="
M 314.9 489.65
Q 318.75 477.2 318.55 464.25 318.3 442.4 307.1 423.45 282.7 431.2 256.8 431.55 228.75 431.9 202 423.45 197.75 430.3 194.95 438 190.7 449.85 190.4 462.3 190.05 476.15 194.6 489.4 197.45 497.7 202 505.05 230.2 512.55 259.85 511.95 284.5 511.4 308.4 505.05 312.45 497.75 314.9 489.65 Z"/>
</g>

<g id="FACES_Head_14_Layer5_0_MEMBER_4_FILL">
<path fill="#CABC9D" stroke="none" d="
M 411 193.05
Q 398.2 163.55 374.8 140.85 351.45 118.1 321.15 105.6 289.75 92.7 255.4 92.7 221.05 92.7 189.65 105.6 159.35 118.1 135.95 140.85 112.6 163.55 99.75 193.05 86.5 223.6 86.5 257.05 86.5 290.5 99.75 321.05 112.6 350.55 135.95 373.3 159.35 396.05 189.65 408.55 221.05 421.45 255.4 421.45 289.75 421.45 321.15 408.55 351.45 396.05 374.8 373.3 398.2 350.55 411 321.05 424.3 290.5 424.3 257.05 424.3 223.6 411 193.05 Z"/>
</g>

<g id="FACES_FrontFlap_0_Layer1_0_MEMBER_0_FILL">
<path fill="#1D1D4C" stroke="none" d="
M 397.6 197.1
L 373.6 193.95 339.45 207.15 316.55 242.55
Q 308.7 267.6 305.1 293.6 300.6 325.35 302.6 357.35 302.7 365 304.2 372.05 306.2 381.6 310.6 389.4 313.65 394.8 319.75 402.05 327.5 411.25 329.75 414.5 335.35 422.35 338.85 431.2 343.75 443.8 344.8 458.6 345.35 466.8 344.6 478.35 343.65 493.25 339.1 508.1 337.45 510.45 338 512.7 338.55 515.05 341.6 516.35 342.95 516.9 344.95 517.25 348.6 517.65 351.65 515.65 378.4 498.6 395.3 471.95 410.75 447.6 415.5 419.15 416.7 409.05 416.95 397.75 417.4 377.2 412.95 354.95 411.1 345.8 410.8 341.3 410.4 334.25 412.15 326.9 413.85 319.95 417.05 314.5 418.8 311.45 423.4 305.6 432.7 293.85 436.6 280.3 441.85 262.2 440.15 242.3
L 428.55 215.25 397.6 197.1 Z"/>
</g>

<g id="FACES_FrontFlap_0_Layer1_0_MEMBER_1_FILL">
<path fill="#ABCDE4" stroke="none" d="
M 414.75 222
Q 411.9 221.7 410.05 220.5
L 375.5 206.5 348.3 215.4 324.45 246.45
Q 322.85 256.15 317.25 288.05 312.55 319.15 313 340.3 313.1 343.9 314.05 352.8 315.15 362.75 316.15 367.6 319.35 382.55 329.05 396.15 334.25 403.4 341.9 411.6 351.4 423.7 354.5 443.8 358.45 469.15 351.35 504 359.75 498.8 371.45 485.4 384.45 470.55 392.55 455.4 406.2 429.85 407.6 400.95 408.3 386.6 406.75 373.1 406.25 368.45 403.65 352.9 401.9 342.35 402.05 335.75 402.3 326.65 405.8 317 407.35 312.8 413.75 304.1 420.65 294.65 426 282.25 433.6 264.65 431.65 247.85 431 242.25 429.25 236.5 427.4 231.1 426.95 229.5 425.05 223.15 419.55 222.4 416.35 222.2 414.75 222 Z"/>
</g>

<g id="FACES_Hat_0_Layer1_0_MEMBER_0_FILL">
<path fill="#1D1D4C" stroke="none" d="
M 491.25 131.1
Q 491.55 119.8 488.9 107.85 484.85 89.1 472.95 73.25 465.75 63.65 456.4 56 426.95 34.8 392.15 20.95 332.75 -2.65 270.05 0.35 215.45 3 164.85 25.6 133.7 39.55 106.9 59.85 76.95 90.65 58.9 129.35 39.25 171.35 35.75 218.1 35.55 222.05 37.35 224.2 39 226.15 41.5 226 43.95 225.85 45.85 223.8 47.9 221.5 48.15 217.8
L 82.45 217.05
Q 118.25 199.55 158.75 192.25 234.15 178.65 284.4 212.3 302.65 224.6 316.6 242.4 318 244.95 320.55 248.05 330.55 260.15 349.55 266.2 366.65 271.7 386.8 271.15 406.1 270.65 420.55 264.95 435.7 259 439.2 249.7 440.4 246.4 440.15 242.4
L 432.7 185
Q 437.85 186.6 443.2 186.9 451.9 187.4 459.7 184.45 467 181.7 472.85 176.1 476.2 172.9 480.1 167.4 490.7 152.35 491.25 131.1 Z"/>
</g>

<g id="FACES_Hat_0_Layer1_0_MEMBER_1_FILL">
<path fill="#ABCDE4" stroke="none" d="
M 459.7 78.35
Q 455.4 73.5 449.8 69.5 425.95 50.9 399.15 38.7 334.8 9.4 257.25 17.6 210.3 22.6 163.95 40.6 147 48.3 131.8 58.95 110.6 73.85 94.2 93.5 67.4 125.65 55.8 167.15 48.9 192.05 48.15 217.8 53.6 224.6 61.45 225.9 67.25 226.85 72.9 224.45 78.55 222.1 82.45 217.05 80.5 217.8 78.65 217 76.9 216.3 76.3 214.65 75.9 213.5 76.25 212.25 76.6 210.95 77.6 210 102.8 196.55 129.1 189 167.65 177.9 206.4 180.05 225.55 181.15 230 181.5 244.45 182.8 255.7 185.35 286.05 192.2 305.6 211.2 319.15 224.4 327.35 242.4
L 331.05 257.45
Q 337.65 267.5 349.25 274.25 362.25 281.8 376.3 281.75 393.25 281.75 410.45 276.4 431.6 269.8 432.05 259.55 432.3 254.7 431.7 250.65 430.9 245.15 430.75 242.4 425 161.85 408.7 142.85 404.15 137.5 396.6 124.25 389.45 111.55 384.2 105.9 382.45 104 382.25 101.75 382.05 99.7 382.9 97.8 383.9 95.6 385.85 95.15 387.2 94.85 388.6 95.45 390 96.05 391.05 97.35 408.3 110.55 419.2 129.6 429.9 148.35 432.7 169.6 451.4 175.35 462.6 168.65 470.6 163.75 474.7 152.55 478.6 141.95 478.2 128.3 477.75 114.6 473.1 101.6 468.2 87.9 459.7 78.35 Z"/>
</g>

<g id="FACES_Mouth1_0_Layer0_0_FILL">
<path fill="#1D1D4C" stroke="none" d="
M 166.25 347.5
Q 175.45 358.4 188.4 358.35 201.3 358.3 210.45 347.45 219.9 336.2 217.85 321.65 203.25 324.1 188.1 324.1 173.3 324.1 158.75 321.65 156.75 336.25 166.25 347.5 Z"/>
</g>

<g id="FACES_Eyes3_0_Layer0_0_MEMBER_0_FILL">
<path fill="#1D1D4C" stroke="none" d="
M 221.9 245.5
Q 220.3 245.1 218.7 245.1 217.45 245.1 216.1 245.35 208.6 246.95 202.8 264.65 201.7 268 197 287.75 196.6 289.25 197.3 290.7 197.95 292.15 199.35 292.8 200 293.15 200.45 293.2 202.8 293.75 207.35 280 212.75 263.6 214.5 261 215.8 259.05 218.15 259 220.5 258.95 221.85 260.85 223.25 262.8 228.45 278.75 232.9 292.4 235.55 292.1
L 235.6 292.1
Q 237.55 291.9 238.65 290.25 239.8 288.65 239.4 286.7 235.55 268.55 234.2 264.25 228.95 247.3 221.9 245.5 Z"/>
</g>

<g id="FACES_Eyes3_0_Layer0_0_MEMBER_1_FILL">
<path fill="#1D1D4C" stroke="none" d="
M 160.45 245.5
Q 158.85 245.1 157.2 245.1 156 245.1 154.6 245.35 147.15 246.95 141.3 264.65 139.4 270.4 137.6 278.25 136.65 282.4 135.5 287.75 135.15 289.25 135.8 290.7 136.5 292.15 137.85 292.8 138.5 293.15 139 293.2 141.3 293.75 145.85 280 151.25 263.6 153 261 154.3 259.05 156.65 259 159 258.95 160.35 260.85 161.75 262.8 167 278.75 171.45 292.4 174.1 292.1 176.05 291.9 177.2 290.25 178.3 288.6 177.9 286.7 174 268.5 172.7 264.25 167.5 247.3 160.45 245.5 Z"/>
</g>

<g id="FACES_LeftHand_0_Layer1_0_MEMBER_0_FILL">
<path fill="#1D1D4C" stroke="none" d="
M 321.35 566.25
Q 313 573.7 307 582.55 296.2 598.7 294.45 617.15 293.65 625.9 294.3 632.6 295.5 644.7 301.1 654.75 311.55 673.45 335.5 681.85 348.2 686.3 364.8 687.5 380.4 688.65 389.65 687.3 405.95 684.9 417.25 675 432.25 661.9 435.3 639.35 436.95 627.45 435.15 617.15 433 604.75 425.75 593.65 421.5 587.1 411.5 576.15 398.85 562.4 391.3 556.85 378.55 547.45 364.8 546.8 351.45 546.2 338.35 553.55 331.1 557.65 321.35 566.25 Z"/>
</g>

<g id="FACES_LeftHand_0_Layer1_0_MEMBER_1_FILL">
<path fill="#CABC9D" stroke="none" d="
M 305.3 617.2
Q 304.65 624.65 305.2 630.25 306.2 640.55 310.9 649 319.75 664.85 340 671.95 350.75 675.7 364.85 676.75 378.05 677.75 385.9 676.55 399.7 674.55 409.25 666.15 421.95 655.05 424.55 636 425.85 626.15 424.4 617.2 422.6 606.7 416.45 597.3 412.85 591.8 404.35 582.5 393.65 570.8 387.3 566.15 376.45 558.2 364.85 557.65 353.55 557.15 342.45 563.35 336.25 566.85 328.05 574.1 321 580.35 315.9 587.9 306.75 601.55 305.3 617.2 Z"/>
</g>

<path id="EDAPT_objects_Center_Marker_0_Layer0_0_1_STROKES" stroke="#000000" stroke-opacity="0.00392156862745098" stroke-width="0.05" stroke-linejoin="round" stroke-linecap="round" fill="none" d="
M 6 0
L 0 6 -6 0 0 -6 6 0 Z
M 1.5 0
L 0 0 0 1.5
M -1.5 0
L 0 0 0 -1.5"/>

<path id="EDAPT_objects_Center_Marker_14_Layer0_0_1_STROKES" stroke="#000000" stroke-opacity="0.00392156862745098" stroke-width="0.05" stroke-linejoin="round" stroke-linecap="round" fill="none" d="
M 6 0
L 0 6 -6 0 0 -6 6 0 Z
M 1.5 0
L 0 0 0 1.5
M -1.5 0
L 0 0 0 -1.5"/>
</defs>

<g transform="matrix( 0.635528564453125, 0, 0, 0.635986328125, 500,450) ">
<g transform="matrix( 1, 0, 0, 1, 388.65,430.35) ">
<g transform="matrix( 1, 0, 0, 1, -384.3,-428.55) ">
<use xlink:href="#ELEMENTS_Backpack_0_Layer1_0_MEMBER_0_FILL"/>
</g>

<g transform="matrix( 1, 0, 0, 1, -384.3,-428.55) ">
<use xlink:href="#ELEMENTS_Backpack_0_Layer1_0_MEMBER_1_FILL"/>
</g>

<g transform="matrix( 1, 0, 0, 1, -384.3,-428.55) ">
<use xlink:href="#ELEMENTS_Backpack_0_Layer1_0_MEMBER_2_FILL"/>
</g>

<g transform="matrix( 1, 0, 0, 1, -384.3,-428.55) ">
<use xlink:href="#ELEMENTS_Backpack_0_Layer1_0_MEMBER_3_FILL"/>
</g>

<g transform="matrix( 1, 0, 0, 1, -384.3,-428.55) ">
<use xlink:href="#ELEMENTS_Backpack_0_Layer1_0_MEMBER_4_FILL"/>
</g>

<g transform="matrix( 1, 0, 0, 1, 0,0) ">
<g transform="matrix( 1, 0, 0, 1, 0,0) ">
<use xlink:href="#EDAPT_objects_Center_Marker_0_Layer0_0_1_STROKES"/>
</g>
</g>
</g>

<g transform="matrix( 1, 0, 0, 1, 69.55,395.4) ">
<g transform="matrix( 1, 0, 0, 1, -71.05,-569.55) ">
<use xlink:href="#FACES_RightHand_0_Layer1_0_MEMBER_0_FILL"/>
</g>

<g transform="matrix( 1, 0, 0, 1, -71.05,-569.55) ">
<use xlink:href="#FACES_RightHand_0_Layer1_0_MEMBER_1_FILL"/>
</g>

<g transform="matrix( 1, 0, 0, 1, 0,0) ">
<g transform="matrix( 1, 0, 0, 1, 0,0) ">
<use xlink:href="#EDAPT_objects_Center_Marker_0_Layer0_0_1_STROKES"/>
</g>
</g>
</g>

<g transform="matrix( 0.9993743896484375, 0.0346221923828125, -0.0346221923828125, 0.9993743896484375, 257.3,617.1) ">
<g transform="matrix( 1, 0, 0, 1, -259.45,-619.7) ">
<use xlink:href="#Torso_0_Layer2_0_MEMBER_0_FILL"/>
</g>

<g transform="matrix( 1, 0, 0, 1, -259.45,-619.7) ">
<use xlink:href="#Torso_0_Layer2_0_MEMBER_1_FILL"/>
</g>

<g transform="matrix( 1, 0, 0, 1, 0,0) ">
<g transform="matrix( 1, 0, 0, 1, 0,0) ">
<use xlink:href="#EDAPT_objects_Center_Marker_0_Layer0_0_1_STROKES"/>
</g>
</g>
</g>

<g transform="matrix( 0.999755859375, 0.0203094482421875, -0.0203094482421875, 0.999755859375, 256.85,768.85) ">
<g transform="matrix( 1, 0, 0, 1, -262,-771.35) ">
<use xlink:href="#ELEMENTS_Bottom_0_Layer2_0_MEMBER_0_MEMBER_0_FILL"/>
</g>

<g transform="matrix( 1, 0, 0, 1, -262,-771.35) ">
<use xlink:href="#ELEMENTS_Bottom_0_Layer2_0_MEMBER_0_MEMBER_1_FILL"/>
</g>

<g transform="matrix( 1, 0, 0, 1, -262,-771.35) ">
<use xlink:href="#ELEMENTS_Bottom_0_Layer2_0_MEMBER_1_MEMBER_0_FILL"/>
</g>

<g transform="matrix( 1, 0, 0, 1, -262,-771.35) ">
<use xlink:href="#ELEMENTS_Bottom_0_Layer2_0_MEMBER_1_MEMBER_1_FILL"/>
</g>

<g transform="matrix( 1, 0, 0, 1, -62.55,-132.15) ">
<g transform="matrix( 1, 0, 0, 1, -205.9,-641.85) ">
<use xlink:href="#ELEMENTS_BeltBuckle_0_Layer0_0_MEMBER_0_FILL"/>
</g>

<g transform="matrix( 1, 0, 0, 1, -205.9,-641.85) ">
<use xlink:href="#ELEMENTS_BeltBuckle_0_Layer0_0_MEMBER_1_FILL"/>
</g>

<g transform="matrix( 1, 0, 0, 1, -205.9,-641.85) ">
<use xlink:href="#ELEMENTS_BeltBuckle_0_Layer0_0_MEMBER_2_FILL"/>
</g>

<g transform="matrix( 1, 0, 0, 1, -205.9,-641.85) ">
<use xlink:href="#ELEMENTS_BeltBuckle_0_Layer0_0_MEMBER_3_FILL"/>
</g>

<g transform="matrix( 1, 0, 0, 1, -1.8,-56.3) "/>

<g transform="matrix( 1, 0, 0, 1, 4.45,54.4) "/>

<g transform="matrix( 1, 0, 0, 1, 3.6,54.95) "/>

<g transform="matrix( 1, 0, 0, 1, 0,55.4) "/>

<g transform="matrix( 1, 0, 0, 1, 6.05,52.75) "/>

<g transform="matrix( 1, 0, 0, 1, 5.25,53.75) "/>

<g transform="matrix( 1, 0, 0, 1, 5.1,54.3) "/>

<g transform="matrix( 1, 0, 0, 1, 5.85,53.55) "/>

<g transform="matrix( 1, 0, 0, 1, 0,56.25) "/>

<g transform="matrix( 1, 0, 0, 1, 4.35,54.9) "/>

<g transform="matrix( 1, 0, 0, 1, 3.55,55.4) "/>

<g transform="matrix( 1, 0, 0, 1, -205.9,-641.85) ">
<use xlink:href="#ELEMENTS_BeltBuckle_0_Layer0_0_MEMBER_15_FILL"/>
</g>

<g transform="matrix( 1, 0, 0, 1, -205.9,-641.85) ">
<use xlink:href="#ELEMENTS_BeltBuckle_0_Layer0_0_MEMBER_16_FILL"/>
</g>
</g>
</g>

<g transform="matrix( 0.990081787109375, 0.140380859375, -0.140380859375, 0.990081787109375, 260.7,425) ">
<g transform="matrix( 1, 0, 0, 1, -177.25,-215.4) ">
<g transform="matrix( 1, 0, 0, 1, -77.6,-219.3) ">
<use xlink:href="#ELEMENTS_BackFlap_0_Layer1_0_MEMBER_0_FILL"/>
</g>

<g transform="matrix( 1, 0, 0, 1, -77.6,-219.3) ">
<use xlink:href="#ELEMENTS_BackFlap_0_Layer1_0_MEMBER_1_FILL"/>
</g>

<g transform="matrix( 1, 0, 0, 1, 0,0) ">
<g transform="matrix( 1, 0, 0, 1, 0,0) ">
<use xlink:href="#EDAPT_objects_Center_Marker_0_Layer0_0_1_STROKES"/>
</g>
</g>
</g>

<g transform="matrix( 1, 0, 0, 1, -256.25,-427.6) ">
<use xlink:href="#FACES_Head_14_Layer5_0_MEMBER_0_FILL"/>
</g>

<g transform="matrix( 1, 0, 0, 1, -256.25,-427.6) ">
<use xlink:href="#FACES_Head_14_Layer5_0_MEMBER_1_FILL"/>
</g>

<g transform="matrix( 1, 0, 0, 1, -256.25,-427.6) ">
<use xlink:href="#FACES_Head_14_Layer5_0_MEMBER_2_FILL"/>
</g>

<g transform="matrix( 1, 0, 0, 1, -256.25,-427.6) ">
<use xlink:href="#FACES_Head_14_Layer5_0_MEMBER_3_FILL"/>
</g>

<g transform="matrix( 1, 0, 0, 1, -256.25,-427.6) ">
<use xlink:href="#FACES_Head_14_Layer5_0_MEMBER_4_FILL"/>
</g>

<g transform="matrix( 1, 0, 0, 1, 124.8,-180.85) ">
<g transform="matrix( 1, 0, 0, 1, -379.65,-253.85) ">
<use xlink:href="#FACES_FrontFlap_0_Layer1_0_MEMBER_0_FILL"/>
</g>

<g transform="matrix( 1, 0, 0, 1, -379.65,-253.85) ">
<use xlink:href="#FACES_FrontFlap_0_Layer1_0_MEMBER_1_FILL"/>
</g>

<g transform="matrix( 1, 0, 0, 1, 0,0) ">
<g transform="matrix( 1, 0, 0, 1, 0,0) ">
<use xlink:href="#EDAPT_objects_Center_Marker_0_Layer0_0_1_STROKES"/>
</g>
</g>
</g>

<g transform="matrix( 1, 0, 0, 1, 8.65,-293.9) ">
<g transform="matrix( 1, 0, 0, 1, -263.5,-140.85) ">
<use xlink:href="#FACES_Hat_0_Layer1_0_MEMBER_0_FILL"/>
</g>

<g transform="matrix( 1, 0, 0, 1, -263.5,-140.85) ">
<use xlink:href="#FACES_Hat_0_Layer1_0_MEMBER_1_FILL"/>
</g>
</g>

<g transform="matrix( 1, 0, 0, 1, -61.7,-85.65) ">
<g transform="matrix( 1, 0, 0, 1, -0.05,-0.8) ">
<g transform="matrix( 1, 0, 0, 1, -188.3,-340) ">
<use xlink:href="#FACES_Mouth1_0_Layer0_0_FILL"/>
</g>
</g>
</g>

<g transform="matrix( 1, 0, 0, 1, -66.15,-164.6) ">
<g transform="matrix( 1, 0, 0, 1, 0.2,10.9) ">
<g transform="matrix( 1, 0, 0, 1, -187.45,-269.15) ">
<use xlink:href="#FACES_Eyes3_0_Layer0_0_MEMBER_0_FILL"/>
</g>

<g transform="matrix( 1, 0, 0, 1, -187.45,-269.15) ">
<use xlink:href="#FACES_Eyes3_0_Layer0_0_MEMBER_1_FILL"/>
</g>
</g>
</g>

<g transform="matrix( 1, 0, 0, 1, 0,0) ">
<g transform="matrix( 1, 0, 0, 1, 0,0) ">
<use xlink:href="#EDAPT_objects_Center_Marker_14_Layer0_0_1_STROKES"/>
</g>
</g>
</g>

<g transform="matrix( 1, 0, 0, 1, 222.1,429.5) ">
<g transform="matrix( 1, 0, 0, 1, -365.05,-617.4) ">
<use xlink:href="#FACES_LeftHand_0_Layer1_0_MEMBER_0_FILL"/>
</g>

<g transform="matrix( 1, 0, 0, 1, -365.05,-617.4) ">
<use xlink:href="#FACES_LeftHand_0_Layer1_0_MEMBER_1_FILL"/>
</g>

<g transform="matrix( 1, 0, 0, 1, 0,0) ">
<g transform="matrix( 1, 0, 0, 1, 0,0) ">
<use xlink:href="#EDAPT_objects_Center_Marker_0_Layer0_0_1_STROKES"/>
</g>
</g>
</g>
</g>
</svg>
